<svg xmlns="http://www.w3.org/2000/svg" width="19.147" height="19.147" viewBox="0 0 19.147 19.147">
  <path id="Icon_fa-brands-linkedin" data-name="Icon fa-brands-linkedin" d="M17.78,2.25H1.363A1.374,1.374,0,0,0,0,3.63V20.017A1.374,1.374,0,0,0,1.363,21.4H17.78a1.377,1.377,0,0,0,1.368-1.38V3.63A1.377,1.377,0,0,0,17.78,2.25ZM5.787,18.662H2.949V9.524H5.791v9.138ZM4.368,8.276A1.645,1.645,0,1,1,6.013,6.631,1.646,1.646,0,0,1,4.368,8.276ZM16.425,18.662H13.587V14.217c0-1.06-.021-2.423-1.475-2.423-1.479,0-1.705,1.154-1.705,2.346v4.522H7.569V9.524h2.723v1.248h.038A2.989,2.989,0,0,1,13.019,9.3c2.872,0,3.406,1.893,3.406,4.355Z" transform="translate(0 -2.25)" fill="#fff"/>
</svg>
