<svg xmlns="http://www.w3.org/2000/svg" width="19.147" height="19.147" viewBox="0 0 19.147 19.147">
  <path id="Icon_fa-brands-square-instagram" data-name="Icon fa-brands-square-instagram" d="M9.574,9.544a2.28,2.28,0,1,0,2.281,2.28,2.28,2.28,0,0,0-2.281-2.28ZM14.9,7.792a2.308,2.308,0,0,0-1.3-1.3,15.168,15.168,0,0,0-4.03-.275,15.055,15.055,0,0,0-4.031.275,2.308,2.308,0,0,0-1.3,1.3,15.2,15.2,0,0,0-.275,4.032,15.138,15.138,0,0,0,.277,4.032,2.308,2.308,0,0,0,1.3,1.3,15.17,15.17,0,0,0,4.031.275,15.05,15.05,0,0,0,4.03-.275,2.308,2.308,0,0,0,1.3-1.3,15.074,15.074,0,0,0,.275-4.032,15.082,15.082,0,0,0-.275-4.032Zm-5.33,7.537A3.5,3.5,0,1,1,12.053,14.3,3.5,3.5,0,0,1,9.574,15.328ZM13.223,8.99a.813.813,0,1,1,.58-.239.818.818,0,0,1-.58.239ZM17.1,2.25H2.052A2.052,2.052,0,0,0,0,4.3V19.346A2.052,2.052,0,0,0,2.052,21.4H17.1a2.052,2.052,0,0,0,2.052-2.052V4.3A2.052,2.052,0,0,0,17.1,2.25Zm-.732,12.395a4.067,4.067,0,0,1-1.1,2.864,4.069,4.069,0,0,1-2.864,1.1c-1.129.064-4.513.064-5.642,0a4.074,4.074,0,0,1-2.864-1.1,4.054,4.054,0,0,1-1.1-2.864c-.064-1.129-.064-4.514,0-5.642a4.053,4.053,0,0,1,1.1-2.864,4.076,4.076,0,0,1,2.864-1.1c1.129-.064,4.513-.064,5.642,0a4.069,4.069,0,0,1,2.864,1.1,4.069,4.069,0,0,1,1.1,2.866C16.428,10.133,16.428,13.515,16.364,14.645Z" transform="translate(0 -2.25)" fill="#fff"/>
</svg>
